<?xml version="1.0" encoding="UTF-8" standalone="no"?>
<svg width="200" height="200" viewBox="0 0 200 200" fill="none" xmlns="http://www.w3.org/2000/svg">
  <rect width="200" height="200" rx="10" fill="#a30000"/>
  <path d="M40 160H160V180H40V160Z" fill="#ffcc00"/>
  <path d="M100 40C73.49 40 52 61.49 52 88C52 114.51 73.49 136 100 136C126.51 136 148 114.51 148 88C148 61.49 126.51 40 100 40ZM100 120C82.33 120 68 105.67 68 88C68 70.33 82.33 56 100 56C117.67 56 132 70.33 132 88C132 105.67 117.67 120 100 120Z" fill="#ffcc00"/>
  <path d="M70 88C70 71.43 83.43 58 100 58C116.57 58 130 71.43 130 88C130 104.57 116.57 118 100 118C83.43 118 70 104.57 70 88Z" fill="#a30000"/>
  <path d="M100 58C83.43 58 70 71.43 70 88C70 104.57 83.43 118 100 118C116.57 118 130 104.57 130 88C130 71.43 116.57 58 100 58ZM100 108C88.95 108 80 99.05 80 88C80 76.95 88.95 68 100 68C111.05 68 120 76.95 120 88C120 99.05 111.05 108 100 108Z" fill="#ffcc00"/>
  <path d="M60 140H140V160H60V140Z" fill="#ffcc00"/>
  <text x="100" y="155" font-family="Arial, sans-serif" font-size="14" font-weight="bold" fill="#a30000" text-anchor="middle">GRAND PRIX</text>
</svg>
